<?xml version="1.0" encoding="UTF-8"?> <svg xmlns="http://www.w3.org/2000/svg" id="f6044366-16c7-4050-ae90-175d91ca3d09" data-name="Layer 1" viewBox="0 0 320 35"><defs><style>.a2883b50-0714-47c7-9fc2-c8b87e6c9d0d{fill:#006aff;}</style></defs><path class="a2883b50-0714-47c7-9fc2-c8b87e6c9d0d" d="M6.21,8.24,0,13.16v5.23l.38-.26a95.93878,95.93878,0,0,1,12.46-5.97c4.05-1.6,3.9-1.58,4.93-.46.46.5.96,1.09,1.14,1.3l.29.38-2.61,2.61c-3.17,3.17-5.46,5.92-4.54,5.5a101.05333,101.05333,0,0,1,11.31-4l2-.54.05-1.84.05-1.84L19.2,8.34c-3.44-2.72-6.37-4.96-6.53-4.98C12.53,3.35,9.63,5.54,6.21,8.24ZM66.4,17.88V31.16h5.76V4.6H66.4Zm9.76,0V31.16h5.76V4.6H76.16ZM58.56,5.27a3.07955,3.07955,0,0,0-2.24,3.02,2.97209,2.97209,0,0,0,2.98,3.15,2.92246,2.92246,0,0,0,3.39-2.91A2.99106,2.99106,0,0,0,60.4,5.25,2.64779,2.64779,0,0,0,58.56,5.27Zm80.16,13.81V31.16h3.52v-8.8H154.4v8.8h3.52V7H154.4V19.16H142.24V7h-3.52ZM34.24,9.72v2.56h4.88c2.69,0,4.88.03,4.88.08s-2.27,3.94-5.04,8.66c-4.78,8.13-5.04,8.59-5.04,9.34v.8H53.28V25.88L48,25.85l-5.3-.05,5.04-8.56c4.69-7.97,5.06-8.61,5.06-9.33V7.16H34.24Zm198.24,9.44v12h12.16v-3.2H236V7.16h-3.52v12ZM132.05,9.88a2.17262,2.17262,0,0,0-.93,2.18,2.13768,2.13768,0,0,0,3.71,1.12,1.62854,1.62854,0,0,0,.53-1.46,1.62234,1.62234,0,0,0-.53-1.47,1.6065,1.6065,0,0,0-1.41-.64,1.87009,1.87009,0,0,0-1.37.27Zm1.79.38a1.88069,1.88069,0,0,1,1.04,1.46,1.87634,1.87634,0,0,1-1.06,1.46,1.54683,1.54683,0,0,1-1.74-2.45l.38-.45.02,1.31c0,1.07.05,1.33.24,1.33.13,0,.24-.14.24-.32s.06-.32.16-.32c.08,0,.22.14.32.32a.63808.63808,0,0,0,.48.32c.35,0,.42-.16.14-.43-.13-.13-.13-.27,0-.5a1.98555,1.98555,0,0,0,.18-.82c0-.56-.35-.82-1.15-.83-.43,0-.48-.03-.21-.14a2.15949,2.15949,0,0,1,.37-.14A2.256,2.256,0,0,1,133.84,10.26ZM92.64,13.4a10.05914,10.05914,0,0,0-5.15,2.24,10.10415,10.10415,0,0,0-2.53,3.84,10.69084,10.69084,0,0,0-.26,5.18,9.26265,9.26265,0,0,0,5.9,6.5,12.79793,12.79793,0,0,0,5.71.26,9.84522,9.84522,0,0,0,5.6-3.94,9.60283,9.60283,0,0,0,.45-9.12,9.90734,9.90734,0,0,0-4.13-4.03A9.79331,9.79331,0,0,0,92.64,13.4Zm3.09,5.4a3.99238,3.99238,0,0,1,2.03,3.78,3.8698,3.8698,0,0,1-5.58,3.68c-3.36-1.68-2.69-7.22.96-7.89A3.659,3.659,0,0,1,95.73,18.8Zm71.95-5.31a8.88748,8.88748,0,0,0-6.64,6.62,11.99453,11.99453,0,0,0,.21,5.5,9.05439,9.05439,0,0,0,6.21,5.78,13.94069,13.94069,0,0,0,4.99,0,9.05744,9.05744,0,0,0,6.51-6.56,12.3803,12.3803,0,0,0,0-4.7c-1.15-4.89-6.05-7.77-11.28-6.64Zm4.83,3.55c4.29,2.11,4.3,8.7.02,10.88a5.71168,5.71168,0,0,1-7.63-2.58c-1.65-3.41-.05-7.6,3.31-8.69a6.67931,6.67931,0,0,1,1.95-.18A4.64922,4.64922,0,0,1,172.51,17.04Zm16.34-3.58a6.03785,6.03785,0,0,0-3.06,2.42c-.14.26-.18.06-.19-.93V13.72h-3.52V31.16h3.5l.05-5.65c.06-6.34.1-6.53,1.26-7.84a3.52317,3.52317,0,0,1,2.88-1.26,3.09352,3.09352,0,0,1,3.14,2.3c.24.59.29,1.52.34,6.56l.05,5.89h3.48l.05-5.65c.06-6.29.1-6.5,1.2-7.78a3.43146,3.43146,0,0,1,2.85-1.34,3.34314,3.34314,0,0,1,3.42,2.94,62.04643,62.04643,0,0,1,.18,6.3v5.52h3.54l-.05-6.51c-.08-7.25-.11-7.52-1.17-9.09-1.84-2.7-6.58-3.12-9.15-.8a5.58548,5.58548,0,0,0-1.09,1.26c-.37.67-.5.72-.62.19a6.29154,6.29154,0,0,0-2.16-2.32A7.94709,7.94709,0,0,0,188.85,13.46Zm28.51-.06c-4.19.85-6.64,4.21-6.64,9.12,0,3.02.74,5.06,2.48,6.8a7.99836,7.99836,0,0,0,6.11,2.32,8.60552,8.60552,0,0,0,4.14-.82,6.8395,6.8395,0,0,0,3.68-4.06l.21-.72h-1.81c-1.74,0-1.81.02-1.98.38a4.55567,4.55567,0,0,1-1.9,1.89,6.16276,6.16276,0,0,1-5.34-.46,5.58639,5.58639,0,0,1-2.13-3.86l-.08-.51h13.22l.11-1.14a8.83439,8.83439,0,0,0-1.09-5.33A9.41942,9.41942,0,0,0,223,14.03a9.99555,9.99555,0,0,0-5.64-.63Zm4.18,3.12A4.43062,4.43062,0,0,1,224,20.23v.53h-9.81l.1-.78a4.597,4.597,0,0,1,3.58-3.86,6.35055,6.35055,0,0,1,3.67.4Zm30.84-3.04a8.79943,8.79943,0,0,0-6.62,6.58,9.19015,9.19015,0,0,0,6.35,11.33,13.10889,13.10889,0,0,0,5.07.02,9.09183,9.09183,0,0,0,6.42-6.42,14.11353,14.11353,0,0,0,0-5.02,8.92384,8.92384,0,0,0-6.77-6.48,11.29894,11.29894,0,0,0-4.45-.01ZM257.17,17a6.16736,6.16736,0,0,1,3.2,6.4,5.76514,5.76514,0,0,1-3.36,4.59,4.23844,4.23844,0,0,1-2.37.5,4.32874,4.32874,0,0,1-2.21-.42,5.893,5.893,0,0,1-2.86-2.8,6.7083,6.7083,0,0,1-.3-4.85,5.88465,5.88465,0,0,1,2.42-3.15,4.4743,4.4743,0,0,1,3.2-.77,4.33055,4.33055,0,0,1,2.28.5Zm15.69-3.52a8.98654,8.98654,0,0,0-6.54,6.66c-1.22,5.18,1.78,10.29,6.67,11.34a10.29946,10.29946,0,0,0,2.51.13,5.122,5.122,0,0,0,2.8-.67,6.25817,6.25817,0,0,0,2-1.47l.82-.9v2.6h3.36V13.73h-3.36V16.5l-.46-.64c-1.52-2.11-4.68-3.07-7.8-2.38Zm4.45,3.72a6.86823,6.86823,0,0,1,1.54,1.06c3.02,2.83,2.24,8.13-1.46,9.79a5.492,5.492,0,0,1-7.63-3.44,6.03615,6.03615,0,0,1,3.49-7.58A6.50045,6.50045,0,0,1,277.31,17.2Zm17.92-3.8a6.5702,6.5702,0,0,0-3.89,2.46l-.46.62V13.71h-3.36V31.15h3.36V26.78c0-2.38.08-4.88.16-5.54.4-3.01,2.22-4.86,4.77-4.85,2.43.02,3.79,1.36,4.19,4.14.08.59.16,3.23.16,5.84v4.77h3.36V24.93c0-5.06-.05-6.38-.24-7.15a5.92327,5.92327,0,0,0-3.68-4.18A13.12353,13.12353,0,0,0,295.23,13.4Zm15.68.08c-2.9.64-4.38,2.27-4.4,4.85a3.80812,3.80812,0,0,0,1.31,3.28c.83.75,1.44,1.01,4.46,1.97,3.78,1.2,4.46,1.66,4.4,3.06-.05,1.46-1.23,2.21-3.41,2.21a4.42991,4.42991,0,0,1-2.1-.43,2.78854,2.78854,0,0,1-1.79-2.29l-.18-.88h-3.34l.1.98a5.94487,5.94487,0,0,0,1.84,3.68c1.49,1.33,3.31,1.84,6.06,1.7,2.61-.11,4.26-.83,5.31-2.3a4.21,4.21,0,0,0,.82-2.98,3.31849,3.31849,0,0,0-.43-2.05c-.74-1.36-1.52-1.81-5.47-3.09-3.76-1.22-4.18-1.49-4.18-2.77,0-1.33,1.04-2.14,2.9-2.26a3.63613,3.63613,0,0,1,1.89.29,2.53946,2.53946,0,0,1,1.65,2.06l.18.82h3.36l-.11-.85a6.02345,6.02345,0,0,0-2.94-4.32A8.8749,8.8749,0,0,0,310.91,13.48ZM56.64,22.44v8.72H62.4V13.72H56.64Zm46.91-8.42c.03.18,1.28,4.1,2.77,8.72l2.72,8.42h5.28l1.15-3.63c.62-2.02,1.26-4.08,1.42-4.59l.26-.94.7,2.38c.38,1.31,1.01,3.36,1.38,4.54l.7,2.16,2.58.05,2.59.03,1.2-3.71c.66-2.05,1.92-5.97,2.8-8.69l1.58-4.96-2.58-.05a17.38371,17.38371,0,0,0-2.69.08c-.11.13-2.4,7.58-2.72,8.88-.1.43-.22.77-.29.77a8.26768,8.26768,0,0,1-.54-1.65c-.24-.9-.9-3.07-1.46-4.83l-1.01-3.2h-4.26l-.62,1.92c-.34,1.06-1.01,3.25-1.5,4.86-.48,1.63-.9,2.99-.93,3.02s-.11-.19-.18-.48c-.13-.54-1.3-4.53-2.26-7.62l-.56-1.79h-2.8c-2.65.01-2.78.02-2.73.31Z"></path><path class="a2883b50-0714-47c7-9fc2-c8b87e6c9d0d" d="M9.36,17.28c-1.23.56-3.84,1.82-5.81,2.82L0,21.91v9.24H25.44V26.27c0-3.79-.05-4.88-.19-4.88-.11,0-.9.18-1.73.4A113.21722,113.21722,0,0,0,8.83,27.26c-1.78.86-1.82.88-2.11.59-.14-.18-.72-.78-1.26-1.39l-.99-1.07.82-1.2a47.21686,47.21686,0,0,1,5.14-6.21c.94-.94,1.58-1.71,1.44-1.71A26.2435,26.2435,0,0,0,9.36,17.28Z"></path></svg> 